<mxfile host="Electron" modified="2023-10-30T11:59:58.488Z" agent="Mozilla/5.0 (Windows NT 10.0; Win64; x64) AppleWebKit/537.36 (KHTML, like Gecko) draw.io/21.7.5 Chrome/114.0.5735.289 Electron/25.8.1 Safari/537.36" etag="iNntQLSfLXZ6D0z2-FQq" version="21.7.5" type="device">
  <diagram name="Page-1" id="VtM1lyrviYb6P0vT9c8i">
    <mxGraphModel dx="2254" dy="806" grid="1" gridSize="10" guides="1" tooltips="1" connect="1" arrows="1" fold="1" page="1" pageScale="1" pageWidth="850" pageHeight="1100" math="0" shadow="0">
      <root>
        <mxCell id="0" />
        <mxCell id="1" parent="0" />
        <mxCell id="3Gb6gLqVRg-Gcj6GdRxA-24" value="&lt;font style=&quot;font-size: 24px;&quot;&gt;BACKEND&lt;/font&gt;" style="text;html=1;strokeColor=none;fillColor=none;align=center;verticalAlign=middle;whiteSpace=wrap;rounded=0;" parent="1" vertex="1">
          <mxGeometry x="-790" y="550" width="210" height="40" as="geometry" />
        </mxCell>
        <mxCell id="3Gb6gLqVRg-Gcj6GdRxA-25" value="&lt;br&gt;Element" style="swimlane;fontStyle=1;align=center;verticalAlign=top;childLayout=stackLayout;horizontal=1;startSize=40;horizontalStack=0;resizeParent=1;resizeParentMax=0;resizeLast=0;collapsible=1;marginBottom=0;whiteSpace=wrap;html=1;strokeColor=#464F55;fontColor=#FFFFFF;fillColor=#2C6879;rounded=1;labelBackgroundColor=none;" parent="1" vertex="1">
          <mxGeometry x="-798" y="720" width="178" height="289" as="geometry">
            <mxRectangle x="299" y="276" width="120" height="40" as="alternateBounds" />
          </mxGeometry>
        </mxCell>
        <mxCell id="3Gb6gLqVRg-Gcj6GdRxA-26" value="+ x: int&lt;br&gt;+ y: int&lt;br&gt;+ name: str&lt;br&gt;+ symbol: str&lt;br&gt;+ symbol_color: str&lt;br&gt;+ background_color: str&lt;br&gt;+ transformer: TransformerAbc" style="text;strokeColor=none;fillColor=none;align=left;verticalAlign=top;spacingLeft=4;spacingRight=4;overflow=hidden;rotatable=0;points=[[0,0.5],[1,0.5]];portConstraint=eastwest;whiteSpace=wrap;html=1;fontColor=#464F55;rounded=1;labelBackgroundColor=none;" parent="3Gb6gLqVRg-Gcj6GdRxA-25" vertex="1">
          <mxGeometry y="40" width="178" height="110" as="geometry" />
        </mxCell>
        <mxCell id="3Gb6gLqVRg-Gcj6GdRxA-27" value="" style="line;strokeWidth=1;fillColor=none;align=left;verticalAlign=middle;spacingTop=-1;spacingLeft=3;spacingRight=3;rotatable=0;labelPosition=right;points=[];portConstraint=eastwest;strokeColor=#464F55;fontColor=#1A1A1A;rounded=1;labelBackgroundColor=none;" parent="3Gb6gLqVRg-Gcj6GdRxA-25" vertex="1">
          <mxGeometry y="150" width="178" height="8" as="geometry" />
        </mxCell>
        <mxCell id="3Gb6gLqVRg-Gcj6GdRxA-28" value="+ move()&lt;br&gt;+ rotate()&lt;br style=&quot;border-color: var(--border-color);&quot;&gt;+ mirror()&lt;br style=&quot;border-color: var(--border-color);&quot;&gt;+ scale()&lt;br&gt;&lt;br style=&quot;border-color: var(--border-color);&quot;&gt;+ fill()&lt;br&gt;&lt;br&gt;+&amp;nbsp;set_transformer(transformer)" style="text;strokeColor=none;fillColor=none;align=left;verticalAlign=top;spacingLeft=4;spacingRight=4;overflow=hidden;rotatable=0;points=[[0,0.5],[1,0.5]];portConstraint=eastwest;whiteSpace=wrap;html=1;fontColor=#464F55;rounded=1;labelBackgroundColor=none;textOpacity=30;" parent="3Gb6gLqVRg-Gcj6GdRxA-25" vertex="1">
          <mxGeometry y="158" width="178" height="131" as="geometry" />
        </mxCell>
        <mxCell id="3Gb6gLqVRg-Gcj6GdRxA-29" value="&lt;br&gt;Group" style="swimlane;fontStyle=1;align=center;verticalAlign=top;childLayout=stackLayout;horizontal=1;startSize=40;horizontalStack=0;resizeParent=1;resizeParentMax=0;resizeLast=0;collapsible=1;marginBottom=0;whiteSpace=wrap;html=1;strokeColor=#464F55;fontColor=#FFFFFF;fillColor=#2C6879;rounded=1;labelBackgroundColor=none;" parent="1" vertex="1">
          <mxGeometry x="-810" y="1020" width="200" height="319" as="geometry">
            <mxRectangle x="299" y="276" width="120" height="40" as="alternateBounds" />
          </mxGeometry>
        </mxCell>
        <mxCell id="3Gb6gLqVRg-Gcj6GdRxA-30" value="+ elements: List[ComponentAbc]&lt;br&gt;+ transformer: TransformerAbc" style="text;strokeColor=none;fillColor=none;align=left;verticalAlign=top;spacingLeft=4;spacingRight=4;overflow=hidden;rotatable=0;points=[[0,0.5],[1,0.5]];portConstraint=eastwest;whiteSpace=wrap;html=1;fontColor=#464F55;rounded=1;labelBackgroundColor=none;" parent="3Gb6gLqVRg-Gcj6GdRxA-29" vertex="1">
          <mxGeometry y="40" width="200" height="40" as="geometry" />
        </mxCell>
        <mxCell id="3Gb6gLqVRg-Gcj6GdRxA-31" value="" style="line;strokeWidth=1;fillColor=none;align=left;verticalAlign=middle;spacingTop=-1;spacingLeft=3;spacingRight=3;rotatable=0;labelPosition=right;points=[];portConstraint=eastwest;strokeColor=#464F55;fontColor=#1A1A1A;rounded=1;labelBackgroundColor=none;" parent="3Gb6gLqVRg-Gcj6GdRxA-29" vertex="1">
          <mxGeometry y="80" width="200" height="8" as="geometry" />
        </mxCell>
        <mxCell id="UTnswi9GxZ8cRz-ZsPGk-95" style="edgeStyle=orthogonalEdgeStyle;rounded=0;orthogonalLoop=1;jettySize=auto;html=1;startArrow=open;startFill=0;endArrow=none;endFill=0;strokeColor=#007FFF;endSize=10;startSize=10;" edge="1" parent="3Gb6gLqVRg-Gcj6GdRxA-29" source="3Gb6gLqVRg-Gcj6GdRxA-32">
          <mxGeometry relative="1" as="geometry">
            <mxPoint x="300" y="203.5" as="targetPoint" />
          </mxGeometry>
        </mxCell>
        <mxCell id="3Gb6gLqVRg-Gcj6GdRxA-32" value="+ move()&lt;br&gt;+ rotate()&lt;br&gt;+ mirror()&lt;br&gt;+ scale()&lt;br&gt;&lt;br&gt;+ fill()&lt;br&gt;&lt;br&gt;+&amp;nbsp;set_transformer(transformer)&lt;br&gt;&lt;br&gt;+ add(c: ComponentAbc)&lt;br style=&quot;border-color: var(--border-color);&quot;&gt;+ remove(c: ComponentAbc)&lt;br style=&quot;border-color: var(--border-color);&quot;&gt;&lt;br&gt;+ union(other: ComponentAbc)&lt;br&gt;+ difference(other:ComponentAbc)&lt;br&gt;+ split(other: ComponentAbc)" style="text;strokeColor=none;fillColor=none;align=left;verticalAlign=top;spacingLeft=4;spacingRight=4;overflow=hidden;rotatable=0;points=[[0,0.5],[1,0.5]];portConstraint=eastwest;whiteSpace=wrap;html=1;fontColor=#464F55;rounded=1;labelBackgroundColor=none;" parent="3Gb6gLqVRg-Gcj6GdRxA-29" vertex="1">
          <mxGeometry y="88" width="200" height="231" as="geometry" />
        </mxCell>
        <mxCell id="3Gb6gLqVRg-Gcj6GdRxA-33" value="&lt;br&gt;Canvas" style="swimlane;fontStyle=1;align=center;verticalAlign=top;childLayout=stackLayout;horizontal=1;startSize=40;horizontalStack=0;resizeParent=1;resizeParentMax=0;resizeLast=0;collapsible=1;marginBottom=0;whiteSpace=wrap;html=1;strokeColor=#464F55;fontColor=#FFFFFF;fillColor=#2C6879;rounded=1;labelBackgroundColor=none;" parent="1" vertex="1">
          <mxGeometry x="-810" y="1350" width="200" height="370" as="geometry">
            <mxRectangle x="299" y="276" width="120" height="40" as="alternateBounds" />
          </mxGeometry>
        </mxCell>
        <mxCell id="3Gb6gLqVRg-Gcj6GdRxA-34" value="+ elements: List[ComponentAbc]&lt;br&gt;+ transformer: TransformerAbc" style="text;strokeColor=none;fillColor=none;align=left;verticalAlign=top;spacingLeft=4;spacingRight=4;overflow=hidden;rotatable=0;points=[[0,0.5],[1,0.5]];portConstraint=eastwest;whiteSpace=wrap;html=1;fontColor=#464F55;rounded=1;labelBackgroundColor=none;" parent="3Gb6gLqVRg-Gcj6GdRxA-33" vertex="1">
          <mxGeometry y="40" width="200" height="40" as="geometry" />
        </mxCell>
        <mxCell id="3Gb6gLqVRg-Gcj6GdRxA-35" value="" style="line;strokeWidth=1;fillColor=none;align=left;verticalAlign=middle;spacingTop=-1;spacingLeft=3;spacingRight=3;rotatable=0;labelPosition=right;points=[];portConstraint=eastwest;strokeColor=#464F55;fontColor=#1A1A1A;rounded=1;labelBackgroundColor=none;" parent="3Gb6gLqVRg-Gcj6GdRxA-33" vertex="1">
          <mxGeometry y="80" width="200" height="8" as="geometry" />
        </mxCell>
        <mxCell id="UTnswi9GxZ8cRz-ZsPGk-96" style="edgeStyle=orthogonalEdgeStyle;rounded=0;orthogonalLoop=1;jettySize=auto;html=1;endArrow=none;endFill=0;startArrow=open;startFill=0;strokeColor=#007FFF;endSize=10;startSize=10;" edge="1" parent="3Gb6gLqVRg-Gcj6GdRxA-33" source="3Gb6gLqVRg-Gcj6GdRxA-36">
          <mxGeometry relative="1" as="geometry">
            <mxPoint x="300" y="228.99999999999955" as="targetPoint" />
          </mxGeometry>
        </mxCell>
        <mxCell id="3Gb6gLqVRg-Gcj6GdRxA-36" value="&lt;font color=&quot;#cccccc&quot;&gt;+ move()&lt;br&gt;+ rotate()&lt;br&gt;+ mirror()&lt;br&gt;+ scale()&lt;br&gt;&lt;br&gt;+ fill()&lt;br&gt;&lt;br&gt;+&amp;nbsp;set_transformer(transformer)&lt;br&gt;&lt;br&gt;+ add(c: ComponentAbc)&lt;br style=&quot;border-color: var(--border-color);&quot;&gt;+ remove(c: ComponentAbc)&lt;br style=&quot;border-color: var(--border-color);&quot;&gt;&lt;br&gt;+ union(other: ComponentAbc)&lt;br&gt;+ difference(other:ComponentAbc)&lt;br&gt;+ split(other: ComponentAbc)&lt;/font&gt;&lt;br&gt;&lt;br&gt;+ create_memento&lt;br&gt;+ restore_from_memento" style="text;strokeColor=none;fillColor=none;align=left;verticalAlign=top;spacingLeft=4;spacingRight=4;overflow=hidden;rotatable=0;points=[[0,0.5],[1,0.5]];portConstraint=eastwest;whiteSpace=wrap;html=1;fontColor=#464F55;rounded=1;labelBackgroundColor=none;" parent="3Gb6gLqVRg-Gcj6GdRxA-33" vertex="1">
          <mxGeometry y="88" width="200" height="282" as="geometry" />
        </mxCell>
        <mxCell id="3Gb6gLqVRg-Gcj6GdRxA-41" value="&lt;br&gt;History" style="swimlane;fontStyle=1;align=center;verticalAlign=top;childLayout=stackLayout;horizontal=1;startSize=40;horizontalStack=0;resizeParent=1;resizeParentMax=0;resizeLast=0;collapsible=1;marginBottom=0;whiteSpace=wrap;html=1;strokeColor=#464F55;fontColor=#FFFFFF;fillColor=#2C6879;rounded=1;labelBackgroundColor=none;" parent="1" vertex="1">
          <mxGeometry x="-810" y="1730" width="220" height="170" as="geometry">
            <mxRectangle x="299" y="276" width="120" height="40" as="alternateBounds" />
          </mxGeometry>
        </mxCell>
        <mxCell id="UTnswi9GxZ8cRz-ZsPGk-97" style="edgeStyle=orthogonalEdgeStyle;rounded=0;orthogonalLoop=1;jettySize=auto;html=1;endArrow=none;endFill=0;startArrow=open;startFill=0;strokeColor=#007FFF;endSize=10;startSize=10;" edge="1" parent="3Gb6gLqVRg-Gcj6GdRxA-41" source="3Gb6gLqVRg-Gcj6GdRxA-42">
          <mxGeometry relative="1" as="geometry">
            <mxPoint x="300" y="70" as="targetPoint" />
          </mxGeometry>
        </mxCell>
        <mxCell id="3Gb6gLqVRg-Gcj6GdRxA-42" value="+ states_past: List[CanvasMemento]&lt;br&gt;+ state_current: List[CanvasMemento]&lt;br&gt;+ states_future: List[CanvasMemento]" style="text;strokeColor=none;fillColor=none;align=left;verticalAlign=top;spacingLeft=4;spacingRight=4;overflow=hidden;rotatable=0;points=[[0,0.5],[1,0.5]];portConstraint=eastwest;whiteSpace=wrap;html=1;fontColor=#464F55;rounded=1;labelBackgroundColor=none;" parent="3Gb6gLqVRg-Gcj6GdRxA-41" vertex="1">
          <mxGeometry y="40" width="220" height="60" as="geometry" />
        </mxCell>
        <mxCell id="3Gb6gLqVRg-Gcj6GdRxA-43" value="" style="line;strokeWidth=1;fillColor=none;align=left;verticalAlign=middle;spacingTop=-1;spacingLeft=3;spacingRight=3;rotatable=0;labelPosition=right;points=[];portConstraint=eastwest;strokeColor=#464F55;fontColor=#1A1A1A;rounded=1;labelBackgroundColor=none;" parent="3Gb6gLqVRg-Gcj6GdRxA-41" vertex="1">
          <mxGeometry y="100" width="220" height="8" as="geometry" />
        </mxCell>
        <mxCell id="3Gb6gLqVRg-Gcj6GdRxA-44" value="+ save_state()&lt;br&gt;+ get_state_past()&lt;br&gt;+ get_state_future()&amp;nbsp;" style="text;strokeColor=none;fillColor=none;align=left;verticalAlign=top;spacingLeft=4;spacingRight=4;overflow=hidden;rotatable=0;points=[[0,0.5],[1,0.5]];portConstraint=eastwest;whiteSpace=wrap;html=1;fontColor=#464F55;rounded=1;labelBackgroundColor=none;" parent="3Gb6gLqVRg-Gcj6GdRxA-41" vertex="1">
          <mxGeometry y="108" width="220" height="62" as="geometry" />
        </mxCell>
        <mxCell id="3Gb6gLqVRg-Gcj6GdRxA-45" value="" style="endArrow=none;dashed=1;html=1;rounded=0;strokeColor=#464F55;strokeWidth=3;" parent="1" edge="1">
          <mxGeometry width="50" height="50" relative="1" as="geometry">
            <mxPoint x="-560" y="1970" as="sourcePoint" />
            <mxPoint x="-560" y="640" as="targetPoint" />
          </mxGeometry>
        </mxCell>
        <mxCell id="3Gb6gLqVRg-Gcj6GdRxA-46" value="&lt;font style=&quot;font-size: 24px;&quot;&gt;COMMAND&lt;/font&gt;" style="text;html=1;strokeColor=none;fillColor=none;align=center;verticalAlign=middle;whiteSpace=wrap;rounded=0;" parent="1" vertex="1">
          <mxGeometry x="-335" y="630" width="210" height="40" as="geometry" />
        </mxCell>
        <mxCell id="3Gb6gLqVRg-Gcj6GdRxA-47" value="&lt;font style=&quot;font-size: 24px;&quot;&gt;USER INTERFACE&lt;br&gt;&lt;/font&gt;Tasks: view things, capture input" style="text;html=1;strokeColor=none;fillColor=none;align=center;verticalAlign=middle;whiteSpace=wrap;rounded=0;" parent="1" vertex="1">
          <mxGeometry x="210" y="640" width="250" height="40" as="geometry" />
        </mxCell>
        <mxCell id="3Gb6gLqVRg-Gcj6GdRxA-48" value="&lt;i&gt;&amp;lt;&amp;lt; abstract &amp;gt;&amp;gt;&lt;br&gt;Command&lt;/i&gt;" style="swimlane;fontStyle=1;align=center;verticalAlign=top;childLayout=stackLayout;horizontal=1;startSize=40;horizontalStack=0;resizeParent=1;resizeParentMax=0;resizeLast=0;collapsible=1;marginBottom=0;whiteSpace=wrap;html=1;strokeColor=#464F55;fontColor=#FFFFFF;fillColor=#2C6879;rounded=1;labelBackgroundColor=none;" parent="1" vertex="1">
          <mxGeometry x="-345" y="700" width="220" height="100" as="geometry">
            <mxRectangle x="299" y="276" width="120" height="40" as="alternateBounds" />
          </mxGeometry>
        </mxCell>
        <mxCell id="3Gb6gLqVRg-Gcj6GdRxA-49" value="&amp;nbsp;" style="text;strokeColor=none;fillColor=none;align=left;verticalAlign=top;spacingLeft=4;spacingRight=4;overflow=hidden;rotatable=0;points=[[0,0.5],[1,0.5]];portConstraint=eastwest;whiteSpace=wrap;html=1;fontColor=#464F55;rounded=1;labelBackgroundColor=none;" parent="3Gb6gLqVRg-Gcj6GdRxA-48" vertex="1">
          <mxGeometry y="40" width="220" height="20" as="geometry" />
        </mxCell>
        <mxCell id="3Gb6gLqVRg-Gcj6GdRxA-50" value="" style="line;strokeWidth=1;fillColor=none;align=left;verticalAlign=middle;spacingTop=-1;spacingLeft=3;spacingRight=3;rotatable=0;labelPosition=right;points=[];portConstraint=eastwest;strokeColor=#464F55;fontColor=#1A1A1A;rounded=1;labelBackgroundColor=none;" parent="3Gb6gLqVRg-Gcj6GdRxA-48" vertex="1">
          <mxGeometry y="60" width="220" height="8" as="geometry" />
        </mxCell>
        <mxCell id="3Gb6gLqVRg-Gcj6GdRxA-51" value="+ execute()" style="text;strokeColor=none;fillColor=none;align=left;verticalAlign=top;spacingLeft=4;spacingRight=4;overflow=hidden;rotatable=0;points=[[0,0.5],[1,0.5]];portConstraint=eastwest;whiteSpace=wrap;html=1;fontColor=#464F55;rounded=1;labelBackgroundColor=none;" parent="3Gb6gLqVRg-Gcj6GdRxA-48" vertex="1">
          <mxGeometry y="68" width="220" height="32" as="geometry" />
        </mxCell>
        <mxCell id="3Gb6gLqVRg-Gcj6GdRxA-52" value="&lt;br&gt;MoveCommand" style="swimlane;fontStyle=1;align=center;verticalAlign=top;childLayout=stackLayout;horizontal=1;startSize=40;horizontalStack=0;resizeParent=1;resizeParentMax=0;resizeLast=0;collapsible=1;marginBottom=0;whiteSpace=wrap;html=1;strokeColor=#464F55;fontColor=#FFFFFF;fillColor=#2C6879;rounded=1;labelBackgroundColor=none;" parent="1" vertex="1">
          <mxGeometry x="-340" y="1040" width="220" height="130" as="geometry">
            <mxRectangle x="299" y="276" width="120" height="40" as="alternateBounds" />
          </mxGeometry>
        </mxCell>
        <mxCell id="UTnswi9GxZ8cRz-ZsPGk-92" style="edgeStyle=orthogonalEdgeStyle;rounded=0;orthogonalLoop=1;jettySize=auto;html=1;dashed=1;strokeColor=#464F55;endArrow=none;endFill=0;" edge="1" parent="3Gb6gLqVRg-Gcj6GdRxA-52" source="3Gb6gLqVRg-Gcj6GdRxA-53">
          <mxGeometry relative="1" as="geometry">
            <mxPoint x="279.9999999999998" y="65" as="targetPoint" />
          </mxGeometry>
        </mxCell>
        <mxCell id="UTnswi9GxZ8cRz-ZsPGk-107" style="edgeStyle=orthogonalEdgeStyle;rounded=0;orthogonalLoop=1;jettySize=auto;html=1;strokeColor=#464F55;endArrow=none;endFill=0;endSize=10;startSize=10;" edge="1" parent="3Gb6gLqVRg-Gcj6GdRxA-52" source="3Gb6gLqVRg-Gcj6GdRxA-53">
          <mxGeometry relative="1" as="geometry">
            <mxPoint x="-120" y="99.99999999999977" as="targetPoint" />
          </mxGeometry>
        </mxCell>
        <mxCell id="3Gb6gLqVRg-Gcj6GdRxA-53" value="+ component: Group/Canvas&lt;br&gt;+ delta_x: int/float&lt;br&gt;+ delta_y: int/float" style="text;strokeColor=none;fillColor=none;align=left;verticalAlign=top;spacingLeft=4;spacingRight=4;overflow=hidden;rotatable=0;points=[[0,0.5],[1,0.5]];portConstraint=eastwest;whiteSpace=wrap;html=1;fontColor=#464F55;rounded=1;labelBackgroundColor=none;" parent="3Gb6gLqVRg-Gcj6GdRxA-52" vertex="1">
          <mxGeometry y="40" width="220" height="50" as="geometry" />
        </mxCell>
        <mxCell id="3Gb6gLqVRg-Gcj6GdRxA-54" value="" style="line;strokeWidth=1;fillColor=none;align=left;verticalAlign=middle;spacingTop=-1;spacingLeft=3;spacingRight=3;rotatable=0;labelPosition=right;points=[];portConstraint=eastwest;strokeColor=#464F55;fontColor=#1A1A1A;rounded=1;labelBackgroundColor=none;" parent="3Gb6gLqVRg-Gcj6GdRxA-52" vertex="1">
          <mxGeometry y="90" width="220" height="8" as="geometry" />
        </mxCell>
        <mxCell id="3Gb6gLqVRg-Gcj6GdRxA-55" value="+ execute()" style="text;strokeColor=none;fillColor=none;align=left;verticalAlign=top;spacingLeft=4;spacingRight=4;overflow=hidden;rotatable=0;points=[[0,0.5],[1,0.5]];portConstraint=eastwest;whiteSpace=wrap;html=1;fontColor=#464F55;rounded=1;labelBackgroundColor=none;" parent="3Gb6gLqVRg-Gcj6GdRxA-52" vertex="1">
          <mxGeometry y="98" width="220" height="32" as="geometry" />
        </mxCell>
        <mxCell id="3Gb6gLqVRg-Gcj6GdRxA-56" value="&lt;i&gt;&amp;lt;&amp;lt; abstract &amp;gt;&amp;gt;&lt;br&gt;Window&lt;/i&gt;" style="swimlane;fontStyle=1;align=center;verticalAlign=top;childLayout=stackLayout;horizontal=1;startSize=40;horizontalStack=0;resizeParent=1;resizeParentMax=0;resizeLast=0;collapsible=1;marginBottom=0;whiteSpace=wrap;html=1;strokeColor=#464F55;fontColor=#FFFFFF;fillColor=#2C6879;rounded=1;labelBackgroundColor=none;" parent="1" vertex="1">
          <mxGeometry x="370" y="920" width="220" height="100" as="geometry">
            <mxRectangle x="299" y="276" width="120" height="40" as="alternateBounds" />
          </mxGeometry>
        </mxCell>
        <mxCell id="3Gb6gLqVRg-Gcj6GdRxA-57" value="&amp;nbsp;" style="text;strokeColor=none;fillColor=none;align=left;verticalAlign=top;spacingLeft=4;spacingRight=4;overflow=hidden;rotatable=0;points=[[0,0.5],[1,0.5]];portConstraint=eastwest;whiteSpace=wrap;html=1;fontColor=#464F55;rounded=1;labelBackgroundColor=none;" parent="3Gb6gLqVRg-Gcj6GdRxA-56" vertex="1">
          <mxGeometry y="40" width="220" height="20" as="geometry" />
        </mxCell>
        <mxCell id="3Gb6gLqVRg-Gcj6GdRxA-58" value="" style="line;strokeWidth=1;fillColor=none;align=left;verticalAlign=middle;spacingTop=-1;spacingLeft=3;spacingRight=3;rotatable=0;labelPosition=right;points=[];portConstraint=eastwest;strokeColor=#464F55;fontColor=#1A1A1A;rounded=1;labelBackgroundColor=none;" parent="3Gb6gLqVRg-Gcj6GdRxA-56" vertex="1">
          <mxGeometry y="60" width="220" height="8" as="geometry" />
        </mxCell>
        <mxCell id="3Gb6gLqVRg-Gcj6GdRxA-59" value="&amp;nbsp;" style="text;strokeColor=none;fillColor=none;align=left;verticalAlign=top;spacingLeft=4;spacingRight=4;overflow=hidden;rotatable=0;points=[[0,0.5],[1,0.5]];portConstraint=eastwest;whiteSpace=wrap;html=1;fontColor=#464F55;rounded=1;labelBackgroundColor=none;" parent="3Gb6gLqVRg-Gcj6GdRxA-56" vertex="1">
          <mxGeometry y="68" width="220" height="32" as="geometry" />
        </mxCell>
        <mxCell id="3Gb6gLqVRg-Gcj6GdRxA-75" value="&lt;br&gt;CanvasWindow" style="swimlane;fontStyle=1;align=center;verticalAlign=top;childLayout=stackLayout;horizontal=1;startSize=40;horizontalStack=0;resizeParent=1;resizeParentMax=0;resizeLast=0;collapsible=1;marginBottom=0;whiteSpace=wrap;html=1;strokeColor=#464F55;fontColor=#FFFFFF;fillColor=#2C6879;rounded=1;labelBackgroundColor=none;" parent="1" vertex="1">
          <mxGeometry x="370" y="1240" width="220" height="100" as="geometry">
            <mxRectangle x="299" y="276" width="120" height="40" as="alternateBounds" />
          </mxGeometry>
        </mxCell>
        <mxCell id="UTnswi9GxZ8cRz-ZsPGk-33" style="edgeStyle=orthogonalEdgeStyle;rounded=0;orthogonalLoop=1;jettySize=auto;html=1;strokeColor=#464F55;dashed=1;endArrow=none;endFill=0;" edge="1" parent="3Gb6gLqVRg-Gcj6GdRxA-75" source="3Gb6gLqVRg-Gcj6GdRxA-76">
          <mxGeometry relative="1" as="geometry">
            <mxPoint x="290" y="50" as="targetPoint" />
          </mxGeometry>
        </mxCell>
        <mxCell id="3Gb6gLqVRg-Gcj6GdRxA-76" value="&amp;nbsp;" style="text;strokeColor=none;fillColor=none;align=left;verticalAlign=top;spacingLeft=4;spacingRight=4;overflow=hidden;rotatable=0;points=[[0,0.5],[1,0.5]];portConstraint=eastwest;whiteSpace=wrap;html=1;fontColor=#464F55;rounded=1;labelBackgroundColor=none;" parent="3Gb6gLqVRg-Gcj6GdRxA-75" vertex="1">
          <mxGeometry y="40" width="220" height="20" as="geometry" />
        </mxCell>
        <mxCell id="3Gb6gLqVRg-Gcj6GdRxA-77" value="" style="line;strokeWidth=1;fillColor=none;align=left;verticalAlign=middle;spacingTop=-1;spacingLeft=3;spacingRight=3;rotatable=0;labelPosition=right;points=[];portConstraint=eastwest;strokeColor=#464F55;fontColor=#1A1A1A;rounded=1;labelBackgroundColor=none;" parent="3Gb6gLqVRg-Gcj6GdRxA-75" vertex="1">
          <mxGeometry y="60" width="220" height="8" as="geometry" />
        </mxCell>
        <mxCell id="3Gb6gLqVRg-Gcj6GdRxA-78" value="&amp;nbsp;" style="text;strokeColor=none;fillColor=none;align=left;verticalAlign=top;spacingLeft=4;spacingRight=4;overflow=hidden;rotatable=0;points=[[0,0.5],[1,0.5]];portConstraint=eastwest;whiteSpace=wrap;html=1;fontColor=#464F55;rounded=1;labelBackgroundColor=none;" parent="3Gb6gLqVRg-Gcj6GdRxA-75" vertex="1">
          <mxGeometry y="68" width="220" height="32" as="geometry" />
        </mxCell>
        <mxCell id="3Gb6gLqVRg-Gcj6GdRxA-80" value="" style="endArrow=none;dashed=1;html=1;rounded=0;strokeColor=#464F55;strokeWidth=1;" parent="1" edge="1">
          <mxGeometry width="50" height="50" relative="1" as="geometry">
            <mxPoint y="1970" as="sourcePoint" />
            <mxPoint y="640" as="targetPoint" />
          </mxGeometry>
        </mxCell>
        <mxCell id="UTnswi9GxZ8cRz-ZsPGk-3" style="edgeStyle=orthogonalEdgeStyle;rounded=0;orthogonalLoop=1;jettySize=auto;html=1;entryX=1;entryY=0.5;entryDx=0;entryDy=0;endArrow=open;endFill=0;startArrow=none;startFill=0;strokeColor=#464F55;endSize=10;startSize=10;" edge="1" parent="1" source="3Gb6gLqVRg-Gcj6GdRxA-81" target="3Gb6gLqVRg-Gcj6GdRxA-49">
          <mxGeometry relative="1" as="geometry" />
        </mxCell>
        <mxCell id="3Gb6gLqVRg-Gcj6GdRxA-81" value="&lt;br&gt;Application" style="swimlane;fontStyle=1;align=center;verticalAlign=top;childLayout=stackLayout;horizontal=1;startSize=40;horizontalStack=0;resizeParent=1;resizeParentMax=0;resizeLast=0;collapsible=1;marginBottom=0;whiteSpace=wrap;html=1;strokeColor=#464F55;fontColor=#FFFFFF;fillColor=#2C6879;rounded=1;labelBackgroundColor=none;" parent="1" vertex="1">
          <mxGeometry x="40" y="920" width="220" height="100" as="geometry">
            <mxRectangle x="299" y="276" width="120" height="40" as="alternateBounds" />
          </mxGeometry>
        </mxCell>
        <mxCell id="3Gb6gLqVRg-Gcj6GdRxA-82" value="&amp;nbsp;" style="text;strokeColor=none;fillColor=none;align=left;verticalAlign=top;spacingLeft=4;spacingRight=4;overflow=hidden;rotatable=0;points=[[0,0.5],[1,0.5]];portConstraint=eastwest;whiteSpace=wrap;html=1;fontColor=#464F55;rounded=1;labelBackgroundColor=none;" parent="3Gb6gLqVRg-Gcj6GdRxA-81" vertex="1">
          <mxGeometry y="40" width="220" height="20" as="geometry" />
        </mxCell>
        <mxCell id="3Gb6gLqVRg-Gcj6GdRxA-83" value="" style="line;strokeWidth=1;fillColor=none;align=left;verticalAlign=middle;spacingTop=-1;spacingLeft=3;spacingRight=3;rotatable=0;labelPosition=right;points=[];portConstraint=eastwest;strokeColor=#464F55;fontColor=#1A1A1A;rounded=1;labelBackgroundColor=none;" parent="3Gb6gLqVRg-Gcj6GdRxA-81" vertex="1">
          <mxGeometry y="60" width="220" height="8" as="geometry" />
        </mxCell>
        <mxCell id="3Gb6gLqVRg-Gcj6GdRxA-84" value="&amp;nbsp;" style="text;strokeColor=none;fillColor=none;align=left;verticalAlign=top;spacingLeft=4;spacingRight=4;overflow=hidden;rotatable=0;points=[[0,0.5],[1,0.5]];portConstraint=eastwest;whiteSpace=wrap;html=1;fontColor=#464F55;rounded=1;labelBackgroundColor=none;" parent="3Gb6gLqVRg-Gcj6GdRxA-81" vertex="1">
          <mxGeometry y="68" width="220" height="32" as="geometry" />
        </mxCell>
        <mxCell id="UTnswi9GxZ8cRz-ZsPGk-1" value="&lt;font style=&quot;font-size: 24px;&quot;&gt;FRONTEND&lt;/font&gt;" style="text;html=1;strokeColor=none;fillColor=none;align=center;verticalAlign=middle;whiteSpace=wrap;rounded=0;" vertex="1" parent="1">
          <mxGeometry x="32.5" y="550" width="210" height="40" as="geometry" />
        </mxCell>
        <mxCell id="UTnswi9GxZ8cRz-ZsPGk-2" value="" style="shape=curlyBracket;whiteSpace=wrap;html=1;rounded=1;flipH=1;labelPosition=right;verticalLabelPosition=middle;align=left;verticalAlign=middle;rotation=-90;" vertex="1" parent="1">
          <mxGeometry x="127.5" y="72.5" width="20" height="1055" as="geometry" />
        </mxCell>
        <mxCell id="UTnswi9GxZ8cRz-ZsPGk-6" value="" style="shape=curlyBracket;whiteSpace=wrap;html=1;rounded=1;flipH=1;labelPosition=right;verticalLabelPosition=middle;align=left;verticalAlign=middle;rotation=-90;" vertex="1" parent="1">
          <mxGeometry x="-698.75" y="473.75" width="20" height="252.5" as="geometry" />
        </mxCell>
        <mxCell id="UTnswi9GxZ8cRz-ZsPGk-7" value="&lt;br&gt;RulerWindow" style="swimlane;fontStyle=1;align=center;verticalAlign=top;childLayout=stackLayout;horizontal=1;startSize=40;horizontalStack=0;resizeParent=1;resizeParentMax=0;resizeLast=0;collapsible=1;marginBottom=0;whiteSpace=wrap;html=1;strokeColor=#464F55;fontColor=#FFFFFF;fillColor=#2C6879;rounded=1;labelBackgroundColor=none;" vertex="1" parent="1">
          <mxGeometry x="370" y="1120" width="220" height="100" as="geometry">
            <mxRectangle x="299" y="276" width="120" height="40" as="alternateBounds" />
          </mxGeometry>
        </mxCell>
        <mxCell id="UTnswi9GxZ8cRz-ZsPGk-34" style="edgeStyle=orthogonalEdgeStyle;rounded=0;orthogonalLoop=1;jettySize=auto;html=1;strokeColor=#464F55;dashed=1;endArrow=none;endFill=0;" edge="1" parent="UTnswi9GxZ8cRz-ZsPGk-7" source="UTnswi9GxZ8cRz-ZsPGk-8">
          <mxGeometry relative="1" as="geometry">
            <mxPoint x="290" y="50" as="targetPoint" />
          </mxGeometry>
        </mxCell>
        <mxCell id="UTnswi9GxZ8cRz-ZsPGk-8" value="&amp;nbsp;" style="text;strokeColor=none;fillColor=none;align=left;verticalAlign=top;spacingLeft=4;spacingRight=4;overflow=hidden;rotatable=0;points=[[0,0.5],[1,0.5]];portConstraint=eastwest;whiteSpace=wrap;html=1;fontColor=#464F55;rounded=1;labelBackgroundColor=none;" vertex="1" parent="UTnswi9GxZ8cRz-ZsPGk-7">
          <mxGeometry y="40" width="220" height="20" as="geometry" />
        </mxCell>
        <mxCell id="UTnswi9GxZ8cRz-ZsPGk-9" value="" style="line;strokeWidth=1;fillColor=none;align=left;verticalAlign=middle;spacingTop=-1;spacingLeft=3;spacingRight=3;rotatable=0;labelPosition=right;points=[];portConstraint=eastwest;strokeColor=#464F55;fontColor=#1A1A1A;rounded=1;labelBackgroundColor=none;" vertex="1" parent="UTnswi9GxZ8cRz-ZsPGk-7">
          <mxGeometry y="60" width="220" height="8" as="geometry" />
        </mxCell>
        <mxCell id="UTnswi9GxZ8cRz-ZsPGk-10" value="&amp;nbsp;" style="text;strokeColor=none;fillColor=none;align=left;verticalAlign=top;spacingLeft=4;spacingRight=4;overflow=hidden;rotatable=0;points=[[0,0.5],[1,0.5]];portConstraint=eastwest;whiteSpace=wrap;html=1;fontColor=#464F55;rounded=1;labelBackgroundColor=none;" vertex="1" parent="UTnswi9GxZ8cRz-ZsPGk-7">
          <mxGeometry y="68" width="220" height="32" as="geometry" />
        </mxCell>
        <mxCell id="UTnswi9GxZ8cRz-ZsPGk-11" value="&lt;br&gt;PromptWindow" style="swimlane;fontStyle=1;align=center;verticalAlign=top;childLayout=stackLayout;horizontal=1;startSize=40;horizontalStack=0;resizeParent=1;resizeParentMax=0;resizeLast=0;collapsible=1;marginBottom=0;whiteSpace=wrap;html=1;strokeColor=#464F55;fontColor=#FFFFFF;fillColor=#2C6879;rounded=1;labelBackgroundColor=none;" vertex="1" parent="1">
          <mxGeometry x="370" y="1370" width="220" height="100" as="geometry">
            <mxRectangle x="299" y="276" width="120" height="40" as="alternateBounds" />
          </mxGeometry>
        </mxCell>
        <mxCell id="UTnswi9GxZ8cRz-ZsPGk-32" style="edgeStyle=orthogonalEdgeStyle;rounded=0;orthogonalLoop=1;jettySize=auto;html=1;strokeColor=#464F55;dashed=1;endArrow=none;endFill=0;" edge="1" parent="UTnswi9GxZ8cRz-ZsPGk-11" source="UTnswi9GxZ8cRz-ZsPGk-12">
          <mxGeometry relative="1" as="geometry">
            <mxPoint x="290" y="50" as="targetPoint" />
          </mxGeometry>
        </mxCell>
        <mxCell id="UTnswi9GxZ8cRz-ZsPGk-12" value="&amp;nbsp;" style="text;strokeColor=none;fillColor=none;align=left;verticalAlign=top;spacingLeft=4;spacingRight=4;overflow=hidden;rotatable=0;points=[[0,0.5],[1,0.5]];portConstraint=eastwest;whiteSpace=wrap;html=1;fontColor=#464F55;rounded=1;labelBackgroundColor=none;" vertex="1" parent="UTnswi9GxZ8cRz-ZsPGk-11">
          <mxGeometry y="40" width="220" height="20" as="geometry" />
        </mxCell>
        <mxCell id="UTnswi9GxZ8cRz-ZsPGk-13" value="" style="line;strokeWidth=1;fillColor=none;align=left;verticalAlign=middle;spacingTop=-1;spacingLeft=3;spacingRight=3;rotatable=0;labelPosition=right;points=[];portConstraint=eastwest;strokeColor=#464F55;fontColor=#1A1A1A;rounded=1;labelBackgroundColor=none;" vertex="1" parent="UTnswi9GxZ8cRz-ZsPGk-11">
          <mxGeometry y="60" width="220" height="8" as="geometry" />
        </mxCell>
        <mxCell id="UTnswi9GxZ8cRz-ZsPGk-14" value="&amp;nbsp;" style="text;strokeColor=none;fillColor=none;align=left;verticalAlign=top;spacingLeft=4;spacingRight=4;overflow=hidden;rotatable=0;points=[[0,0.5],[1,0.5]];portConstraint=eastwest;whiteSpace=wrap;html=1;fontColor=#464F55;rounded=1;labelBackgroundColor=none;" vertex="1" parent="UTnswi9GxZ8cRz-ZsPGk-11">
          <mxGeometry y="68" width="220" height="32" as="geometry" />
        </mxCell>
        <mxCell id="UTnswi9GxZ8cRz-ZsPGk-15" value="&lt;br&gt;InputWindow" style="swimlane;fontStyle=1;align=center;verticalAlign=top;childLayout=stackLayout;horizontal=1;startSize=40;horizontalStack=0;resizeParent=1;resizeParentMax=0;resizeLast=0;collapsible=1;marginBottom=0;whiteSpace=wrap;html=1;strokeColor=#464F55;fontColor=#FFFFFF;fillColor=#2C6879;rounded=1;labelBackgroundColor=none;" vertex="1" parent="1">
          <mxGeometry x="370" y="1500" width="220" height="100" as="geometry">
            <mxRectangle x="299" y="276" width="120" height="40" as="alternateBounds" />
          </mxGeometry>
        </mxCell>
        <mxCell id="UTnswi9GxZ8cRz-ZsPGk-31" style="edgeStyle=orthogonalEdgeStyle;rounded=0;orthogonalLoop=1;jettySize=auto;html=1;strokeColor=#464F55;dashed=1;endArrow=none;endFill=0;" edge="1" parent="UTnswi9GxZ8cRz-ZsPGk-15" source="UTnswi9GxZ8cRz-ZsPGk-16">
          <mxGeometry relative="1" as="geometry">
            <mxPoint x="290" y="50" as="targetPoint" />
          </mxGeometry>
        </mxCell>
        <mxCell id="UTnswi9GxZ8cRz-ZsPGk-16" value="&amp;nbsp;" style="text;strokeColor=none;fillColor=none;align=left;verticalAlign=top;spacingLeft=4;spacingRight=4;overflow=hidden;rotatable=0;points=[[0,0.5],[1,0.5]];portConstraint=eastwest;whiteSpace=wrap;html=1;fontColor=#464F55;rounded=1;labelBackgroundColor=none;" vertex="1" parent="UTnswi9GxZ8cRz-ZsPGk-15">
          <mxGeometry y="40" width="220" height="20" as="geometry" />
        </mxCell>
        <mxCell id="UTnswi9GxZ8cRz-ZsPGk-17" value="" style="line;strokeWidth=1;fillColor=none;align=left;verticalAlign=middle;spacingTop=-1;spacingLeft=3;spacingRight=3;rotatable=0;labelPosition=right;points=[];portConstraint=eastwest;strokeColor=#464F55;fontColor=#1A1A1A;rounded=1;labelBackgroundColor=none;" vertex="1" parent="UTnswi9GxZ8cRz-ZsPGk-15">
          <mxGeometry y="60" width="220" height="8" as="geometry" />
        </mxCell>
        <mxCell id="UTnswi9GxZ8cRz-ZsPGk-18" value="&amp;nbsp;" style="text;strokeColor=none;fillColor=none;align=left;verticalAlign=top;spacingLeft=4;spacingRight=4;overflow=hidden;rotatable=0;points=[[0,0.5],[1,0.5]];portConstraint=eastwest;whiteSpace=wrap;html=1;fontColor=#464F55;rounded=1;labelBackgroundColor=none;" vertex="1" parent="UTnswi9GxZ8cRz-ZsPGk-15">
          <mxGeometry y="68" width="220" height="32" as="geometry" />
        </mxCell>
        <mxCell id="UTnswi9GxZ8cRz-ZsPGk-19" value="&lt;br&gt;MenuWindow" style="swimlane;fontStyle=1;align=center;verticalAlign=top;childLayout=stackLayout;horizontal=1;startSize=40;horizontalStack=0;resizeParent=1;resizeParentMax=0;resizeLast=0;collapsible=1;marginBottom=0;whiteSpace=wrap;html=1;strokeColor=#464F55;fontColor=#FFFFFF;fillColor=#2C6879;rounded=1;labelBackgroundColor=none;" vertex="1" parent="1">
          <mxGeometry x="370" y="1620" width="220" height="100" as="geometry">
            <mxRectangle x="299" y="276" width="120" height="40" as="alternateBounds" />
          </mxGeometry>
        </mxCell>
        <mxCell id="UTnswi9GxZ8cRz-ZsPGk-35" style="edgeStyle=orthogonalEdgeStyle;rounded=0;orthogonalLoop=1;jettySize=auto;html=1;strokeColor=#464F55;dashed=1;endArrow=none;endFill=0;" edge="1" parent="UTnswi9GxZ8cRz-ZsPGk-19" source="UTnswi9GxZ8cRz-ZsPGk-20">
          <mxGeometry relative="1" as="geometry">
            <mxPoint x="290" y="49.999999999999545" as="targetPoint" />
          </mxGeometry>
        </mxCell>
        <mxCell id="UTnswi9GxZ8cRz-ZsPGk-20" value="&amp;nbsp;" style="text;strokeColor=none;fillColor=none;align=left;verticalAlign=top;spacingLeft=4;spacingRight=4;overflow=hidden;rotatable=0;points=[[0,0.5],[1,0.5]];portConstraint=eastwest;whiteSpace=wrap;html=1;fontColor=#464F55;rounded=1;labelBackgroundColor=none;" vertex="1" parent="UTnswi9GxZ8cRz-ZsPGk-19">
          <mxGeometry y="40" width="220" height="20" as="geometry" />
        </mxCell>
        <mxCell id="UTnswi9GxZ8cRz-ZsPGk-21" value="" style="line;strokeWidth=1;fillColor=none;align=left;verticalAlign=middle;spacingTop=-1;spacingLeft=3;spacingRight=3;rotatable=0;labelPosition=right;points=[];portConstraint=eastwest;strokeColor=#464F55;fontColor=#1A1A1A;rounded=1;labelBackgroundColor=none;" vertex="1" parent="UTnswi9GxZ8cRz-ZsPGk-19">
          <mxGeometry y="60" width="220" height="8" as="geometry" />
        </mxCell>
        <mxCell id="UTnswi9GxZ8cRz-ZsPGk-22" value="&amp;nbsp;" style="text;strokeColor=none;fillColor=none;align=left;verticalAlign=top;spacingLeft=4;spacingRight=4;overflow=hidden;rotatable=0;points=[[0,0.5],[1,0.5]];portConstraint=eastwest;whiteSpace=wrap;html=1;fontColor=#464F55;rounded=1;labelBackgroundColor=none;" vertex="1" parent="UTnswi9GxZ8cRz-ZsPGk-19">
          <mxGeometry y="68" width="220" height="32" as="geometry" />
        </mxCell>
        <mxCell id="UTnswi9GxZ8cRz-ZsPGk-23" value="&lt;br&gt;ToolsWindow" style="swimlane;fontStyle=1;align=center;verticalAlign=top;childLayout=stackLayout;horizontal=1;startSize=40;horizontalStack=0;resizeParent=1;resizeParentMax=0;resizeLast=0;collapsible=1;marginBottom=0;whiteSpace=wrap;html=1;strokeColor=#464F55;fontColor=#FFFFFF;fillColor=#2C6879;rounded=1;labelBackgroundColor=none;" vertex="1" parent="1">
          <mxGeometry x="370" y="1740" width="220" height="100" as="geometry">
            <mxRectangle x="299" y="276" width="120" height="40" as="alternateBounds" />
          </mxGeometry>
        </mxCell>
        <mxCell id="UTnswi9GxZ8cRz-ZsPGk-24" value="&amp;nbsp;" style="text;strokeColor=none;fillColor=none;align=left;verticalAlign=top;spacingLeft=4;spacingRight=4;overflow=hidden;rotatable=0;points=[[0,0.5],[1,0.5]];portConstraint=eastwest;whiteSpace=wrap;html=1;fontColor=#464F55;rounded=1;labelBackgroundColor=none;" vertex="1" parent="UTnswi9GxZ8cRz-ZsPGk-23">
          <mxGeometry y="40" width="220" height="20" as="geometry" />
        </mxCell>
        <mxCell id="UTnswi9GxZ8cRz-ZsPGk-25" value="" style="line;strokeWidth=1;fillColor=none;align=left;verticalAlign=middle;spacingTop=-1;spacingLeft=3;spacingRight=3;rotatable=0;labelPosition=right;points=[];portConstraint=eastwest;strokeColor=#464F55;fontColor=#1A1A1A;rounded=1;labelBackgroundColor=none;" vertex="1" parent="UTnswi9GxZ8cRz-ZsPGk-23">
          <mxGeometry y="60" width="220" height="8" as="geometry" />
        </mxCell>
        <mxCell id="UTnswi9GxZ8cRz-ZsPGk-26" value="&amp;nbsp;" style="text;strokeColor=none;fillColor=none;align=left;verticalAlign=top;spacingLeft=4;spacingRight=4;overflow=hidden;rotatable=0;points=[[0,0.5],[1,0.5]];portConstraint=eastwest;whiteSpace=wrap;html=1;fontColor=#464F55;rounded=1;labelBackgroundColor=none;" vertex="1" parent="UTnswi9GxZ8cRz-ZsPGk-23">
          <mxGeometry y="68" width="220" height="32" as="geometry" />
        </mxCell>
        <mxCell id="UTnswi9GxZ8cRz-ZsPGk-29" style="edgeStyle=orthogonalEdgeStyle;rounded=0;orthogonalLoop=1;jettySize=auto;html=1;entryX=1;entryY=0.5;entryDx=0;entryDy=0;exitX=1.003;exitY=0.556;exitDx=0;exitDy=0;exitPerimeter=0;endArrow=block;endFill=0;strokeColor=#464F55;dashed=1;endSize=10;" edge="1" parent="1" source="UTnswi9GxZ8cRz-ZsPGk-24" target="3Gb6gLqVRg-Gcj6GdRxA-57">
          <mxGeometry relative="1" as="geometry">
            <mxPoint x="640" y="1790.0000000000005" as="sourcePoint" />
            <mxPoint x="640" y="970" as="targetPoint" />
            <Array as="points">
              <mxPoint x="591" y="1790" />
              <mxPoint x="660" y="1790" />
              <mxPoint x="660" y="970" />
            </Array>
          </mxGeometry>
        </mxCell>
        <mxCell id="UTnswi9GxZ8cRz-ZsPGk-36" style="edgeStyle=orthogonalEdgeStyle;rounded=0;orthogonalLoop=1;jettySize=auto;html=1;entryX=0;entryY=0.5;entryDx=0;entryDy=0;endArrow=open;endFill=0;startArrow=diamond;startFill=0;endSize=10;startSize=10;strokeColor=#464F55;" edge="1" parent="1" source="3Gb6gLqVRg-Gcj6GdRxA-82" target="3Gb6gLqVRg-Gcj6GdRxA-57">
          <mxGeometry relative="1" as="geometry" />
        </mxCell>
        <mxCell id="UTnswi9GxZ8cRz-ZsPGk-37" value="&lt;br&gt;SetElementCommand" style="swimlane;fontStyle=1;align=center;verticalAlign=top;childLayout=stackLayout;horizontal=1;startSize=40;horizontalStack=0;resizeParent=1;resizeParentMax=0;resizeLast=0;collapsible=1;marginBottom=0;whiteSpace=wrap;html=1;strokeColor=#464F55;fontColor=#FFFFFF;fillColor=#2C6879;rounded=1;labelBackgroundColor=none;" vertex="1" parent="1">
          <mxGeometry x="-345" y="880" width="220" height="100" as="geometry">
            <mxRectangle x="299" y="276" width="120" height="40" as="alternateBounds" />
          </mxGeometry>
        </mxCell>
        <mxCell id="UTnswi9GxZ8cRz-ZsPGk-93" style="edgeStyle=orthogonalEdgeStyle;rounded=0;orthogonalLoop=1;jettySize=auto;html=1;endArrow=none;endFill=0;dashed=1;strokeColor=#464F55;" edge="1" parent="UTnswi9GxZ8cRz-ZsPGk-37" source="UTnswi9GxZ8cRz-ZsPGk-38">
          <mxGeometry relative="1" as="geometry">
            <mxPoint x="285" y="50" as="targetPoint" />
          </mxGeometry>
        </mxCell>
        <mxCell id="UTnswi9GxZ8cRz-ZsPGk-38" value="&amp;nbsp;" style="text;strokeColor=none;fillColor=none;align=left;verticalAlign=top;spacingLeft=4;spacingRight=4;overflow=hidden;rotatable=0;points=[[0,0.5],[1,0.5]];portConstraint=eastwest;whiteSpace=wrap;html=1;fontColor=#464F55;rounded=1;labelBackgroundColor=none;" vertex="1" parent="UTnswi9GxZ8cRz-ZsPGk-37">
          <mxGeometry y="40" width="220" height="20" as="geometry" />
        </mxCell>
        <mxCell id="UTnswi9GxZ8cRz-ZsPGk-39" value="" style="line;strokeWidth=1;fillColor=none;align=left;verticalAlign=middle;spacingTop=-1;spacingLeft=3;spacingRight=3;rotatable=0;labelPosition=right;points=[];portConstraint=eastwest;strokeColor=#464F55;fontColor=#1A1A1A;rounded=1;labelBackgroundColor=none;" vertex="1" parent="UTnswi9GxZ8cRz-ZsPGk-37">
          <mxGeometry y="60" width="220" height="8" as="geometry" />
        </mxCell>
        <mxCell id="UTnswi9GxZ8cRz-ZsPGk-40" value="+ execute()" style="text;strokeColor=none;fillColor=none;align=left;verticalAlign=top;spacingLeft=4;spacingRight=4;overflow=hidden;rotatable=0;points=[[0,0.5],[1,0.5]];portConstraint=eastwest;whiteSpace=wrap;html=1;fontColor=#464F55;rounded=1;labelBackgroundColor=none;" vertex="1" parent="UTnswi9GxZ8cRz-ZsPGk-37">
          <mxGeometry y="68" width="220" height="32" as="geometry" />
        </mxCell>
        <mxCell id="UTnswi9GxZ8cRz-ZsPGk-49" value="&lt;br&gt;CreateMementoCommand" style="swimlane;fontStyle=1;align=center;verticalAlign=top;childLayout=stackLayout;horizontal=1;startSize=40;horizontalStack=0;resizeParent=1;resizeParentMax=0;resizeLast=0;collapsible=1;marginBottom=0;whiteSpace=wrap;html=1;strokeColor=#464F55;fontColor=#FFFFFF;fillColor=#2C6879;rounded=1;labelBackgroundColor=none;" vertex="1" parent="1">
          <mxGeometry x="-340" y="1650" width="220" height="100" as="geometry">
            <mxRectangle x="299" y="276" width="120" height="40" as="alternateBounds" />
          </mxGeometry>
        </mxCell>
        <mxCell id="UTnswi9GxZ8cRz-ZsPGk-88" style="edgeStyle=orthogonalEdgeStyle;rounded=0;orthogonalLoop=1;jettySize=auto;html=1;dashed=1;strokeColor=#464F55;endArrow=none;endFill=0;" edge="1" parent="UTnswi9GxZ8cRz-ZsPGk-49" source="UTnswi9GxZ8cRz-ZsPGk-50">
          <mxGeometry relative="1" as="geometry">
            <mxPoint x="280" y="50" as="targetPoint" />
          </mxGeometry>
        </mxCell>
        <mxCell id="UTnswi9GxZ8cRz-ZsPGk-101" style="edgeStyle=orthogonalEdgeStyle;rounded=0;orthogonalLoop=1;jettySize=auto;html=1;strokeColor=#464F55;endArrow=none;endFill=0;endSize=10;startSize=10;" edge="1" parent="UTnswi9GxZ8cRz-ZsPGk-49" source="UTnswi9GxZ8cRz-ZsPGk-50">
          <mxGeometry relative="1" as="geometry">
            <mxPoint x="-120" y="50" as="targetPoint" />
          </mxGeometry>
        </mxCell>
        <mxCell id="UTnswi9GxZ8cRz-ZsPGk-50" value="&amp;nbsp;" style="text;strokeColor=none;fillColor=none;align=left;verticalAlign=top;spacingLeft=4;spacingRight=4;overflow=hidden;rotatable=0;points=[[0,0.5],[1,0.5]];portConstraint=eastwest;whiteSpace=wrap;html=1;fontColor=#464F55;rounded=1;labelBackgroundColor=none;" vertex="1" parent="UTnswi9GxZ8cRz-ZsPGk-49">
          <mxGeometry y="40" width="220" height="20" as="geometry" />
        </mxCell>
        <mxCell id="UTnswi9GxZ8cRz-ZsPGk-51" value="" style="line;strokeWidth=1;fillColor=none;align=left;verticalAlign=middle;spacingTop=-1;spacingLeft=3;spacingRight=3;rotatable=0;labelPosition=right;points=[];portConstraint=eastwest;strokeColor=#464F55;fontColor=#1A1A1A;rounded=1;labelBackgroundColor=none;" vertex="1" parent="UTnswi9GxZ8cRz-ZsPGk-49">
          <mxGeometry y="60" width="220" height="8" as="geometry" />
        </mxCell>
        <mxCell id="UTnswi9GxZ8cRz-ZsPGk-52" value="+ execute()" style="text;strokeColor=none;fillColor=none;align=left;verticalAlign=top;spacingLeft=4;spacingRight=4;overflow=hidden;rotatable=0;points=[[0,0.5],[1,0.5]];portConstraint=eastwest;whiteSpace=wrap;html=1;fontColor=#464F55;rounded=1;labelBackgroundColor=none;" vertex="1" parent="UTnswi9GxZ8cRz-ZsPGk-49">
          <mxGeometry y="68" width="220" height="32" as="geometry" />
        </mxCell>
        <mxCell id="UTnswi9GxZ8cRz-ZsPGk-53" value="&lt;br&gt;GetStateCommand" style="swimlane;fontStyle=1;align=center;verticalAlign=top;childLayout=stackLayout;horizontal=1;startSize=40;horizontalStack=0;resizeParent=1;resizeParentMax=0;resizeLast=0;collapsible=1;marginBottom=0;whiteSpace=wrap;html=1;strokeColor=#464F55;fontColor=#FFFFFF;fillColor=#2C6879;rounded=1;labelBackgroundColor=none;" vertex="1" parent="1">
          <mxGeometry x="-340" y="2030" width="220" height="100" as="geometry">
            <mxRectangle x="299" y="276" width="120" height="40" as="alternateBounds" />
          </mxGeometry>
        </mxCell>
        <mxCell id="UTnswi9GxZ8cRz-ZsPGk-54" value="&amp;nbsp;" style="text;strokeColor=none;fillColor=none;align=left;verticalAlign=top;spacingLeft=4;spacingRight=4;overflow=hidden;rotatable=0;points=[[0,0.5],[1,0.5]];portConstraint=eastwest;whiteSpace=wrap;html=1;fontColor=#464F55;rounded=1;labelBackgroundColor=none;" vertex="1" parent="UTnswi9GxZ8cRz-ZsPGk-53">
          <mxGeometry y="40" width="220" height="20" as="geometry" />
        </mxCell>
        <mxCell id="UTnswi9GxZ8cRz-ZsPGk-55" value="" style="line;strokeWidth=1;fillColor=none;align=left;verticalAlign=middle;spacingTop=-1;spacingLeft=3;spacingRight=3;rotatable=0;labelPosition=right;points=[];portConstraint=eastwest;strokeColor=#464F55;fontColor=#1A1A1A;rounded=1;labelBackgroundColor=none;" vertex="1" parent="UTnswi9GxZ8cRz-ZsPGk-53">
          <mxGeometry y="60" width="220" height="8" as="geometry" />
        </mxCell>
        <mxCell id="UTnswi9GxZ8cRz-ZsPGk-56" value="+ execute()" style="text;strokeColor=none;fillColor=none;align=left;verticalAlign=top;spacingLeft=4;spacingRight=4;overflow=hidden;rotatable=0;points=[[0,0.5],[1,0.5]];portConstraint=eastwest;whiteSpace=wrap;html=1;fontColor=#464F55;rounded=1;labelBackgroundColor=none;" vertex="1" parent="UTnswi9GxZ8cRz-ZsPGk-53">
          <mxGeometry y="68" width="220" height="32" as="geometry" />
        </mxCell>
        <mxCell id="UTnswi9GxZ8cRz-ZsPGk-57" value="&lt;br&gt;SaveStateCommand" style="swimlane;fontStyle=1;align=center;verticalAlign=top;childLayout=stackLayout;horizontal=1;startSize=40;horizontalStack=0;resizeParent=1;resizeParentMax=0;resizeLast=0;collapsible=1;marginBottom=0;whiteSpace=wrap;html=1;strokeColor=#464F55;fontColor=#FFFFFF;fillColor=#2C6879;rounded=1;labelBackgroundColor=none;" vertex="1" parent="1">
          <mxGeometry x="-340" y="1920" width="220" height="100" as="geometry">
            <mxRectangle x="299" y="276" width="120" height="40" as="alternateBounds" />
          </mxGeometry>
        </mxCell>
        <mxCell id="UTnswi9GxZ8cRz-ZsPGk-99" style="edgeStyle=orthogonalEdgeStyle;rounded=0;orthogonalLoop=1;jettySize=auto;html=1;strokeColor=#464F55;endArrow=none;endFill=0;endSize=10;startSize=10;" edge="1" parent="UTnswi9GxZ8cRz-ZsPGk-57" source="UTnswi9GxZ8cRz-ZsPGk-58">
          <mxGeometry relative="1" as="geometry">
            <mxPoint x="-120" y="50" as="targetPoint" />
          </mxGeometry>
        </mxCell>
        <mxCell id="UTnswi9GxZ8cRz-ZsPGk-58" value="&amp;nbsp;" style="text;strokeColor=none;fillColor=none;align=left;verticalAlign=top;spacingLeft=4;spacingRight=4;overflow=hidden;rotatable=0;points=[[0,0.5],[1,0.5]];portConstraint=eastwest;whiteSpace=wrap;html=1;fontColor=#464F55;rounded=1;labelBackgroundColor=none;" vertex="1" parent="UTnswi9GxZ8cRz-ZsPGk-57">
          <mxGeometry y="40" width="220" height="20" as="geometry" />
        </mxCell>
        <mxCell id="UTnswi9GxZ8cRz-ZsPGk-86" style="edgeStyle=orthogonalEdgeStyle;rounded=0;orthogonalLoop=1;jettySize=auto;html=1;dashed=1;strokeColor=#464F55;endArrow=none;endFill=0;" edge="1" parent="UTnswi9GxZ8cRz-ZsPGk-57" source="UTnswi9GxZ8cRz-ZsPGk-59">
          <mxGeometry relative="1" as="geometry">
            <mxPoint x="280" y="63.999999999999545" as="targetPoint" />
          </mxGeometry>
        </mxCell>
        <mxCell id="UTnswi9GxZ8cRz-ZsPGk-59" value="" style="line;strokeWidth=1;fillColor=none;align=left;verticalAlign=middle;spacingTop=-1;spacingLeft=3;spacingRight=3;rotatable=0;labelPosition=right;points=[];portConstraint=eastwest;strokeColor=#464F55;fontColor=#1A1A1A;rounded=1;labelBackgroundColor=none;" vertex="1" parent="UTnswi9GxZ8cRz-ZsPGk-57">
          <mxGeometry y="60" width="220" height="8" as="geometry" />
        </mxCell>
        <mxCell id="UTnswi9GxZ8cRz-ZsPGk-60" value="+ execute()" style="text;strokeColor=none;fillColor=none;align=left;verticalAlign=top;spacingLeft=4;spacingRight=4;overflow=hidden;rotatable=0;points=[[0,0.5],[1,0.5]];portConstraint=eastwest;whiteSpace=wrap;html=1;fontColor=#464F55;rounded=1;labelBackgroundColor=none;" vertex="1" parent="UTnswi9GxZ8cRz-ZsPGk-57">
          <mxGeometry y="68" width="220" height="32" as="geometry" />
        </mxCell>
        <mxCell id="UTnswi9GxZ8cRz-ZsPGk-61" value="&lt;br&gt;RestoreMementoCommand" style="swimlane;fontStyle=1;align=center;verticalAlign=top;childLayout=stackLayout;horizontal=1;startSize=40;horizontalStack=0;resizeParent=1;resizeParentMax=0;resizeLast=0;collapsible=1;marginBottom=0;whiteSpace=wrap;html=1;strokeColor=#464F55;fontColor=#FFFFFF;fillColor=#2C6879;rounded=1;labelBackgroundColor=none;" vertex="1" parent="1">
          <mxGeometry x="-340" y="1760" width="220" height="100" as="geometry">
            <mxRectangle x="299" y="276" width="120" height="40" as="alternateBounds" />
          </mxGeometry>
        </mxCell>
        <mxCell id="UTnswi9GxZ8cRz-ZsPGk-87" style="edgeStyle=orthogonalEdgeStyle;rounded=0;orthogonalLoop=1;jettySize=auto;html=1;dashed=1;strokeColor=#464F55;endArrow=none;endFill=0;" edge="1" parent="UTnswi9GxZ8cRz-ZsPGk-61" source="UTnswi9GxZ8cRz-ZsPGk-62">
          <mxGeometry relative="1" as="geometry">
            <mxPoint x="280" y="50" as="targetPoint" />
          </mxGeometry>
        </mxCell>
        <mxCell id="UTnswi9GxZ8cRz-ZsPGk-62" value="&amp;nbsp;" style="text;strokeColor=none;fillColor=none;align=left;verticalAlign=top;spacingLeft=4;spacingRight=4;overflow=hidden;rotatable=0;points=[[0,0.5],[1,0.5]];portConstraint=eastwest;whiteSpace=wrap;html=1;fontColor=#464F55;rounded=1;labelBackgroundColor=none;" vertex="1" parent="UTnswi9GxZ8cRz-ZsPGk-61">
          <mxGeometry y="40" width="220" height="20" as="geometry" />
        </mxCell>
        <mxCell id="UTnswi9GxZ8cRz-ZsPGk-63" value="" style="line;strokeWidth=1;fillColor=none;align=left;verticalAlign=middle;spacingTop=-1;spacingLeft=3;spacingRight=3;rotatable=0;labelPosition=right;points=[];portConstraint=eastwest;strokeColor=#464F55;fontColor=#1A1A1A;rounded=1;labelBackgroundColor=none;" vertex="1" parent="UTnswi9GxZ8cRz-ZsPGk-61">
          <mxGeometry y="60" width="220" height="8" as="geometry" />
        </mxCell>
        <mxCell id="UTnswi9GxZ8cRz-ZsPGk-64" value="+ execute()" style="text;strokeColor=none;fillColor=none;align=left;verticalAlign=top;spacingLeft=4;spacingRight=4;overflow=hidden;rotatable=0;points=[[0,0.5],[1,0.5]];portConstraint=eastwest;whiteSpace=wrap;html=1;fontColor=#464F55;rounded=1;labelBackgroundColor=none;" vertex="1" parent="UTnswi9GxZ8cRz-ZsPGk-61">
          <mxGeometry y="68" width="220" height="32" as="geometry" />
        </mxCell>
        <mxCell id="UTnswi9GxZ8cRz-ZsPGk-69" value="&lt;br&gt;AddCommad&lt;br&gt;RemoveCommand" style="swimlane;fontStyle=1;align=center;verticalAlign=top;childLayout=stackLayout;horizontal=1;startSize=60;horizontalStack=0;resizeParent=1;resizeParentMax=0;resizeLast=0;collapsible=1;marginBottom=0;whiteSpace=wrap;html=1;strokeColor=#464F55;fontColor=#FFFFFF;fillColor=#2C6879;rounded=1;labelBackgroundColor=none;arcSize=6;" vertex="1" parent="1">
          <mxGeometry x="-340" y="1350" width="220" height="120" as="geometry">
            <mxRectangle x="299" y="276" width="120" height="40" as="alternateBounds" />
          </mxGeometry>
        </mxCell>
        <mxCell id="UTnswi9GxZ8cRz-ZsPGk-90" style="edgeStyle=orthogonalEdgeStyle;rounded=0;orthogonalLoop=1;jettySize=auto;html=1;dashed=1;strokeColor=#464F55;endArrow=none;endFill=0;" edge="1" parent="UTnswi9GxZ8cRz-ZsPGk-69" source="UTnswi9GxZ8cRz-ZsPGk-70">
          <mxGeometry relative="1" as="geometry">
            <mxPoint x="279.9999999999998" y="70" as="targetPoint" />
          </mxGeometry>
        </mxCell>
        <mxCell id="UTnswi9GxZ8cRz-ZsPGk-105" style="edgeStyle=orthogonalEdgeStyle;rounded=0;orthogonalLoop=1;jettySize=auto;html=1;strokeColor=#464F55;endArrow=none;endFill=0;endSize=10;startSize=10;" edge="1" parent="UTnswi9GxZ8cRz-ZsPGk-69" source="UTnswi9GxZ8cRz-ZsPGk-70">
          <mxGeometry relative="1" as="geometry">
            <mxPoint x="-120" y="70" as="targetPoint" />
          </mxGeometry>
        </mxCell>
        <mxCell id="UTnswi9GxZ8cRz-ZsPGk-70" value="&amp;nbsp;" style="text;strokeColor=none;fillColor=none;align=left;verticalAlign=top;spacingLeft=4;spacingRight=4;overflow=hidden;rotatable=0;points=[[0,0.5],[1,0.5]];portConstraint=eastwest;whiteSpace=wrap;html=1;fontColor=#464F55;rounded=1;labelBackgroundColor=none;" vertex="1" parent="UTnswi9GxZ8cRz-ZsPGk-69">
          <mxGeometry y="60" width="220" height="20" as="geometry" />
        </mxCell>
        <mxCell id="UTnswi9GxZ8cRz-ZsPGk-71" value="" style="line;strokeWidth=1;fillColor=none;align=left;verticalAlign=middle;spacingTop=-1;spacingLeft=3;spacingRight=3;rotatable=0;labelPosition=right;points=[];portConstraint=eastwest;strokeColor=#464F55;fontColor=#1A1A1A;rounded=1;labelBackgroundColor=none;" vertex="1" parent="UTnswi9GxZ8cRz-ZsPGk-69">
          <mxGeometry y="80" width="220" height="8" as="geometry" />
        </mxCell>
        <mxCell id="UTnswi9GxZ8cRz-ZsPGk-72" value="+ execute()" style="text;strokeColor=none;fillColor=none;align=left;verticalAlign=top;spacingLeft=4;spacingRight=4;overflow=hidden;rotatable=0;points=[[0,0.5],[1,0.5]];portConstraint=eastwest;whiteSpace=wrap;html=1;fontColor=#464F55;rounded=1;labelBackgroundColor=none;" vertex="1" parent="UTnswi9GxZ8cRz-ZsPGk-69">
          <mxGeometry y="88" width="220" height="32" as="geometry" />
        </mxCell>
        <mxCell id="UTnswi9GxZ8cRz-ZsPGk-91" style="edgeStyle=orthogonalEdgeStyle;rounded=0;orthogonalLoop=1;jettySize=auto;html=1;dashed=1;strokeColor=#464F55;endArrow=none;endFill=0;" edge="1" parent="1" source="UTnswi9GxZ8cRz-ZsPGk-73">
          <mxGeometry relative="1" as="geometry">
            <mxPoint x="-60.00000000000023" y="1260" as="targetPoint" />
          </mxGeometry>
        </mxCell>
        <mxCell id="UTnswi9GxZ8cRz-ZsPGk-106" style="edgeStyle=orthogonalEdgeStyle;rounded=0;orthogonalLoop=1;jettySize=auto;html=1;strokeColor=#464F55;endArrow=none;endFill=0;endSize=10;startSize=10;" edge="1" parent="1" source="UTnswi9GxZ8cRz-ZsPGk-73">
          <mxGeometry relative="1" as="geometry">
            <mxPoint x="-460" y="1260" as="targetPoint" />
          </mxGeometry>
        </mxCell>
        <mxCell id="UTnswi9GxZ8cRz-ZsPGk-73" value="&lt;br&gt;RotateCommand&lt;br&gt;MirrorCommand&lt;br&gt;ScaleCommad&lt;br&gt;RemoveCommand" style="swimlane;fontStyle=1;align=center;verticalAlign=top;childLayout=stackLayout;horizontal=1;startSize=90;horizontalStack=0;resizeParent=1;resizeParentMax=0;resizeLast=0;collapsible=1;marginBottom=0;whiteSpace=wrap;html=1;strokeColor=#464F55;fontColor=#FFFFFF;fillColor=#2C6879;rounded=1;labelBackgroundColor=none;arcSize=6;" vertex="1" parent="1">
          <mxGeometry x="-340" y="1180" width="220" height="160" as="geometry">
            <mxRectangle x="299" y="276" width="120" height="40" as="alternateBounds" />
          </mxGeometry>
        </mxCell>
        <mxCell id="UTnswi9GxZ8cRz-ZsPGk-74" value="&amp;nbsp;" style="text;strokeColor=none;fillColor=none;align=left;verticalAlign=top;spacingLeft=4;spacingRight=4;overflow=hidden;rotatable=0;points=[[0,0.5],[1,0.5]];portConstraint=eastwest;whiteSpace=wrap;html=1;fontColor=#464F55;rounded=1;labelBackgroundColor=none;" vertex="1" parent="UTnswi9GxZ8cRz-ZsPGk-73">
          <mxGeometry y="90" width="220" height="30" as="geometry" />
        </mxCell>
        <mxCell id="UTnswi9GxZ8cRz-ZsPGk-75" value="" style="line;strokeWidth=1;fillColor=none;align=left;verticalAlign=middle;spacingTop=-1;spacingLeft=3;spacingRight=3;rotatable=0;labelPosition=right;points=[];portConstraint=eastwest;strokeColor=#464F55;fontColor=#1A1A1A;rounded=1;labelBackgroundColor=none;" vertex="1" parent="UTnswi9GxZ8cRz-ZsPGk-73">
          <mxGeometry y="120" width="220" height="8" as="geometry" />
        </mxCell>
        <mxCell id="UTnswi9GxZ8cRz-ZsPGk-76" value="+ execute()" style="text;strokeColor=none;fillColor=none;align=left;verticalAlign=top;spacingLeft=4;spacingRight=4;overflow=hidden;rotatable=0;points=[[0,0.5],[1,0.5]];portConstraint=eastwest;whiteSpace=wrap;html=1;fontColor=#464F55;rounded=1;labelBackgroundColor=none;" vertex="1" parent="UTnswi9GxZ8cRz-ZsPGk-73">
          <mxGeometry y="128" width="220" height="32" as="geometry" />
        </mxCell>
        <mxCell id="UTnswi9GxZ8cRz-ZsPGk-77" value="&lt;br&gt;UnionCommad&lt;br&gt;DifferenceCommand&lt;br&gt;SplitCommand" style="swimlane;fontStyle=1;align=center;verticalAlign=top;childLayout=stackLayout;horizontal=1;startSize=70;horizontalStack=0;resizeParent=1;resizeParentMax=0;resizeLast=0;collapsible=1;marginBottom=0;whiteSpace=wrap;html=1;strokeColor=#464F55;fontColor=#FFFFFF;fillColor=#2C6879;rounded=1;labelBackgroundColor=none;arcSize=6;" vertex="1" parent="1">
          <mxGeometry x="-340" y="1480" width="220" height="130" as="geometry">
            <mxRectangle x="299" y="276" width="120" height="40" as="alternateBounds" />
          </mxGeometry>
        </mxCell>
        <mxCell id="UTnswi9GxZ8cRz-ZsPGk-89" style="edgeStyle=orthogonalEdgeStyle;rounded=0;orthogonalLoop=1;jettySize=auto;html=1;dashed=1;strokeColor=#464F55;endArrow=none;endFill=0;" edge="1" parent="UTnswi9GxZ8cRz-ZsPGk-77" source="UTnswi9GxZ8cRz-ZsPGk-78">
          <mxGeometry relative="1" as="geometry">
            <mxPoint x="280" y="80" as="targetPoint" />
          </mxGeometry>
        </mxCell>
        <mxCell id="UTnswi9GxZ8cRz-ZsPGk-78" value="&amp;nbsp;" style="text;strokeColor=none;fillColor=none;align=left;verticalAlign=top;spacingLeft=4;spacingRight=4;overflow=hidden;rotatable=0;points=[[0,0.5],[1,0.5]];portConstraint=eastwest;whiteSpace=wrap;html=1;fontColor=#464F55;rounded=1;labelBackgroundColor=none;" vertex="1" parent="UTnswi9GxZ8cRz-ZsPGk-77">
          <mxGeometry y="70" width="220" height="20" as="geometry" />
        </mxCell>
        <mxCell id="UTnswi9GxZ8cRz-ZsPGk-79" value="" style="line;strokeWidth=1;fillColor=none;align=left;verticalAlign=middle;spacingTop=-1;spacingLeft=3;spacingRight=3;rotatable=0;labelPosition=right;points=[];portConstraint=eastwest;strokeColor=#464F55;fontColor=#1A1A1A;rounded=1;labelBackgroundColor=none;" vertex="1" parent="UTnswi9GxZ8cRz-ZsPGk-77">
          <mxGeometry y="90" width="220" height="8" as="geometry" />
        </mxCell>
        <mxCell id="UTnswi9GxZ8cRz-ZsPGk-80" value="+ execute()" style="text;strokeColor=none;fillColor=none;align=left;verticalAlign=top;spacingLeft=4;spacingRight=4;overflow=hidden;rotatable=0;points=[[0,0.5],[1,0.5]];portConstraint=eastwest;whiteSpace=wrap;html=1;fontColor=#464F55;rounded=1;labelBackgroundColor=none;" vertex="1" parent="UTnswi9GxZ8cRz-ZsPGk-77">
          <mxGeometry y="98" width="220" height="32" as="geometry" />
        </mxCell>
        <mxCell id="UTnswi9GxZ8cRz-ZsPGk-84" style="edgeStyle=orthogonalEdgeStyle;rounded=0;orthogonalLoop=1;jettySize=auto;html=1;dashed=1;strokeColor=#464F55;endArrow=block;endFill=0;endSize=10;entryX=1;entryY=0.5;entryDx=0;entryDy=0;" edge="1" parent="1" source="UTnswi9GxZ8cRz-ZsPGk-54" target="3Gb6gLqVRg-Gcj6GdRxA-51">
          <mxGeometry relative="1" as="geometry">
            <mxPoint x="-120" y="1000" as="targetPoint" />
            <Array as="points">
              <mxPoint x="-60" y="2080" />
              <mxPoint x="-60" y="784" />
            </Array>
          </mxGeometry>
        </mxCell>
        <mxCell id="UTnswi9GxZ8cRz-ZsPGk-94" style="edgeStyle=orthogonalEdgeStyle;rounded=0;orthogonalLoop=1;jettySize=auto;html=1;entryX=1;entryY=0.5;entryDx=0;entryDy=0;endArrow=open;endFill=0;strokeColor=#007FFF;endSize=10;startSize=10;startArrow=diamond;startFill=0;" edge="1" parent="1" source="3Gb6gLqVRg-Gcj6GdRxA-84" target="3Gb6gLqVRg-Gcj6GdRxA-26">
          <mxGeometry relative="1" as="geometry">
            <Array as="points">
              <mxPoint x="150" y="2160" />
              <mxPoint x="-510" y="2160" />
              <mxPoint x="-510" y="815" />
            </Array>
          </mxGeometry>
        </mxCell>
        <mxCell id="UTnswi9GxZ8cRz-ZsPGk-98" style="edgeStyle=orthogonalEdgeStyle;rounded=0;orthogonalLoop=1;jettySize=auto;html=1;entryX=1;entryY=0.355;entryDx=0;entryDy=0;entryPerimeter=0;strokeColor=#464F55;endArrow=open;endFill=0;endSize=10;startSize=10;" edge="1" parent="1" source="UTnswi9GxZ8cRz-ZsPGk-54" target="3Gb6gLqVRg-Gcj6GdRxA-44">
          <mxGeometry relative="1" as="geometry">
            <Array as="points">
              <mxPoint x="-460" y="2080" />
              <mxPoint x="-460" y="1860" />
            </Array>
          </mxGeometry>
        </mxCell>
        <mxCell id="UTnswi9GxZ8cRz-ZsPGk-100" style="edgeStyle=orthogonalEdgeStyle;rounded=0;orthogonalLoop=1;jettySize=auto;html=1;entryX=1.012;entryY=0.774;entryDx=0;entryDy=0;entryPerimeter=0;strokeColor=#464F55;endArrow=open;endFill=0;endSize=10;startSize=10;" edge="1" parent="1" source="UTnswi9GxZ8cRz-ZsPGk-62" target="3Gb6gLqVRg-Gcj6GdRxA-36">
          <mxGeometry relative="1" as="geometry">
            <Array as="points">
              <mxPoint x="-460" y="1810" />
              <mxPoint x="-460" y="1656" />
            </Array>
          </mxGeometry>
        </mxCell>
        <mxCell id="UTnswi9GxZ8cRz-ZsPGk-103" style="edgeStyle=orthogonalEdgeStyle;rounded=0;orthogonalLoop=1;jettySize=auto;html=1;entryX=0.993;entryY=0.064;entryDx=0;entryDy=0;entryPerimeter=0;strokeColor=#464F55;endArrow=open;endFill=0;endSize=10;startSize=10;" edge="1" parent="1" source="UTnswi9GxZ8cRz-ZsPGk-38" target="3Gb6gLqVRg-Gcj6GdRxA-26">
          <mxGeometry relative="1" as="geometry">
            <Array as="points">
              <mxPoint x="-460" y="930" />
              <mxPoint x="-460" y="767" />
            </Array>
          </mxGeometry>
        </mxCell>
        <mxCell id="UTnswi9GxZ8cRz-ZsPGk-104" style="edgeStyle=orthogonalEdgeStyle;rounded=0;orthogonalLoop=1;jettySize=auto;html=1;entryX=0.994;entryY=0.142;entryDx=0;entryDy=0;entryPerimeter=0;strokeColor=#464F55;endArrow=open;endFill=0;endSize=10;startSize=10;" edge="1" parent="1" source="UTnswi9GxZ8cRz-ZsPGk-78" target="3Gb6gLqVRg-Gcj6GdRxA-32">
          <mxGeometry relative="1" as="geometry">
            <Array as="points">
              <mxPoint x="-460" y="1560" />
              <mxPoint x="-460" y="1141" />
            </Array>
          </mxGeometry>
        </mxCell>
        <mxCell id="UTnswi9GxZ8cRz-ZsPGk-109" value="" style="rounded=0;whiteSpace=wrap;html=1;fillColor=none;" vertex="1" parent="1">
          <mxGeometry x="-830" y="530" width="1540" height="1660" as="geometry" />
        </mxCell>
      </root>
    </mxGraphModel>
  </diagram>
</mxfile>
